<?xml version="1.0" encoding="UTF-8"?>
<svg xmlns="http://www.w3.org/2000/svg" viewBox="0 0 512 512">
  <path fill="#8A2BE2" d="M344 288c-13.25 0-24 10.74-24 24c0 13.25 10.75 24 24 24s24-10.75 24-24C368 298.7 357.3 288 344 288zM184 88C184 74.75 173.3 64 160 64S136 74.75 136 88c0 13.26 10.75 24 24 24S184 101.3 184 88zM416 240c-13.25 0-24 10.74-24 24c0 13.25 10.75 24 24 24s24-10.75 24-24C440 250.7 429.3 240 416 240zM128 304c0-13.26-10.75-24-24-24S80 290.7 80 304c0 13.25 10.75 24 24 24S128 317.3 128 304zM256 0C114.6 0 0 114.6 0 256s114.6 256 256 256s256-114.6 256-256S397.4 0 256 0zM256 464c-114.7 0-208-93.31-208-208S141.3 48 256 48s208 93.31 208 208S370.7 464 256 464zM256 128c-70.69 0-128 57.31-128 128c0 70.68 57.31 128 128 128c70.68 0 128-57.32 128-128C384 185.3 326.7 128 256 128zM256 336c-44.13 0-80-35.88-80-80c0-44.13 35.88-80 80-80c44.13 0 80 35.88 80 80C336 300.1 300.1 336 256 336z"/>
</svg>
